/* XPM */
static const char * rst_xpm[] = {
"22 22 91 1",
" 	c None",
".	c #000000",
"+	c #3BA03B",
"@	c #2B9C2B",
"#	c #2BA02B",
"$	c #1C9A1C",
"%	c #3C9F3C",
"&	c #2E9A2E",
"*	c #1F961F",
"=	c #008D00",
"-	c #009000",
";	c #009200",
">	c #0D9E0D",
",	c #1CA71C",
"'	c #008900",
")	c #009300",
"!	c #009900",
"~	c #009E00",
"{	c #00A000",
"]	c #00A300",
"^	c #1E941E",
"/	c #007800",
"(	c #007B00",
"_	c #008F00",
":	c #00A800",
"<	c #00AA00",
"[	c #00AD00",
"}	c #009100",
"|	c #009800",
"1	c #00AB00",
"2	c #00B000",
"3	c #00B400",
"4	c #00B900",
"5	c #1E971E",
"6	c #006A00",
"7	c #009C00",
"8	c #00A200",
"9	c #00B700",
"0	c #00BC00",
"a	c #00C000",
"b	c #00C300",
"c	c #008C00",
"d	c #00A500",
"e	c #00AC00",
"f	c #00B200",
"g	c #00C100",
"h	c #00C600",
"i	c #00CB00",
"j	c #00CE00",
"k	c #0DE60D",
"l	c #00AF00",
"m	c #00B600",
"n	c #00BE00",
"o	c #00CC00",
"p	c #00D200",
"q	c #00D600",
"r	c #00DA00",
"s	c #3CEB3C",
"t	c #00CA00",
"u	c #008500",
"v	c #00BB00",
"w	c #00C800",
"x	c #00CD00",
"y	c #00D700",
"z	c #00DD00",
"A	c #00E100",
"B	c #10E710",
"C	c #1FED1F",
"D	c #009500",
"E	c #00C500",
"F	c #00E200",
"G	c #00E700",
"H	c #00EA00",
"I	c #00EE00",
"J	c #00CF00",
"K	c #00F300",
"L	c #009A00",
"M	c #00EC00",
"N	c #00EF00",
"O	c #00F600",
"P	c #10E910",
"Q	c #00F900",
"R	c #009F00",
"S	c #3CED3C",
"T	c #1FEE1F",
"U	c #00FB00",
"V	c #00FD00",
"W	c #0DE80D",
"X	c #009600",
"Y	c #009D00",
"Z	c #008200",
"                      ",
"                      ",
"                      ",
"                      ",
"     ....             ",
"   ..+@#$..           ",
"  .%&*=-;>,.          ",
"  .&'=-)!~{].         ",
" .^/(_)!~]:<[.        ",
" .'..}|~]:1234.     . ",
".56  .78:1290ab.   .. ",
".c    .def90ghij. .k. ",
".;     .lmnghopqr.st. ",
".u      .vawxpyzABCD. ",
".        .EopyzFGHI|. ",
".         .JqzFGHIKL. ",
"           .rAGMNKO7. ",
"            .PMNKOQR. ",
"           .STNKOUV{. ",
"          .WxX|7YR{Z. ",
"         ............ ",
"                      "};
